<svg width="1046" height="900" fill="none" xmlns="http://www.w3.org/2000/svg"><path opacity=".3" d="M364.491 261.253L546.66 443.422l-91.161 91.161L273.33 352.414 0 625.744l273.33 273.33 182.169-182.169 91.161 91.161-182.169 182.169 273.253 273.255 273.33-273.332-182.246-182.245 91.162-91.161 182.25 182.245 273.25-273.253-273.25-273.253-182.25 182.245-91.162-91.161L911.074 261.33 637.744-12 364.491 261.253zm364.261 728.905l-91.085 91.082-91.084-91.082 91.084-91.084 91.085 91.084zM182.169 625.744l91.084-91.084 91.084 91.084-91.084 91.084-91.084-91.084zm911.001 0l-91.09 91.084-91.083-91.084 91.083-91.084 91.09 91.084zm-364.188 0l-91.161 91.161-91.161-91.161 91.161-91.161 91.161 91.161zm-.23-364.414l-91.085 91.084-91.084-91.084 91.084-91.085 91.085 91.085z" fill="#fff"/></svg>