<svg width="211" height="46" fill="none" xmlns="http://www.w3.org/2000/svg"><g clip-path="url(#clip0_205_3285)"><path d="M12.77 10.494l6.25 6.25-3.128 3.128-6.25-6.25L.263 23l9.379 9.378 6.25-6.25 3.128 3.128-6.25 6.25 9.375 9.376 9.379-9.378-6.253-6.253 3.127-3.128 6.254 6.253L44.027 23l-9.375-9.376-6.254 6.253-3.127-3.127 6.253-6.254-9.379-9.378-9.375 9.376zm12.498 25.01l-3.125 3.125-3.126-3.125 3.126-3.126 3.125 3.126zM6.514 23l3.125-3.125L12.764 23 9.64 26.125 6.514 23zm31.258 0l-3.126 3.125L31.521 23l3.125-3.125L37.772 23zm-12.496 0l-3.128 3.128L19.02 23l3.128-3.128L25.276 23zm-.008-12.504l-3.125 3.126-3.126-3.126 3.126-3.125 3.125 3.125z" fill="#D9272D"/></g><path d="M63.479 11.372a4.469 4.469 0 01.924 0c.152.008.376.044.672.108a3.381 3.381 0 011.584.744c.288.224.528.488.72.792.192.296.352.688.48 1.176.136.48.204 1.016.204 1.608 0 .592-.068 1.132-.204 1.62-.128.48-.288.872-.48 1.176a3.168 3.168 0 01-.72.78c-.28.224-.54.392-.78.504-.24.104-.508.184-.804.24-.296.064-.52.1-.672.108a4.469 4.469 0 01-.924 0 4.705 4.705 0 01-.66-.108 3.791 3.791 0 01-.804-.24 4.26 4.26 0 01-.792-.504 3.279 3.279 0 01-.708-.78c-.192-.304-.356-.696-.492-1.176a6.382 6.382 0 01-.192-1.62c0-.592.064-1.128.192-1.608.136-.488.3-.88.492-1.176.192-.304.428-.568.708-.792a3.77 3.77 0 01.792-.492c.24-.112.508-.196.804-.252.296-.064.516-.1.66-.108zm1.716 1.56c-.344-.208-.76-.312-1.248-.312s-.904.104-1.248.312c-.344.2-.6.468-.768.804a4.239 4.239 0 00-.36 1.008 5.635 5.635 0 00-.096 1.056c0 .368.032.72.096 1.056.072.336.192.672.36 1.008.168.336.424.608.768.816.344.2.76.3 1.248.3s.904-.1 1.248-.3c.344-.208.6-.48.768-.816.168-.336.284-.672.348-1.008.072-.336.108-.688.108-1.056 0-.368-.036-.72-.108-1.056a3.875 3.875 0 00-.348-1.008 1.905 1.905 0 00-.768-.804zm6.208-.06h-2.64V11.6h6.816v1.272h-2.64V20h-1.536v-7.128zm6.885 2.508l3.372-3.78h1.824l-3.72 3.876L83.796 20h-1.944l-3.564-4.356V20h-1.536v-8.4h1.536v3.78zm6.48-3.78h3.348c.32 0 .604.012.852.036.256.024.54.088.852.192.32.104.584.248.792.432.216.176.396.432.54.768.152.328.228.72.228 1.176 0 .824-.26 1.48-.78 1.968s-1.352.732-2.496.732h-1.8V20h-1.536v-8.4zm1.536 1.272v2.76h1.788c.224 0 .416-.012.576-.036.16-.032.336-.088.528-.168a.88.88 0 00.444-.408c.104-.2.156-.448.156-.744 0-.256-.044-.476-.132-.66a1.027 1.027 0 00-.288-.408 1.097 1.097 0 00-.432-.216 1.781 1.781 0 00-.432-.096 3.112 3.112 0 00-.408-.024h-1.8zm9.647-1.5a4.469 4.469 0 01.924 0c.152.008.376.044.672.108a3.381 3.381 0 011.584.744c.288.224.528.488.72.792.192.296.352.688.48 1.176.136.48.204 1.016.204 1.608 0 .592-.068 1.132-.204 1.62-.128.48-.288.872-.48 1.176a3.168 3.168 0 01-.72.78c-.28.224-.54.392-.78.504-.24.104-.508.184-.804.24-.296.064-.52.1-.672.108a4.469 4.469 0 01-.924 0 4.705 4.705 0 01-.66-.108 3.791 3.791 0 01-.804-.24 4.26 4.26 0 01-.792-.504 3.279 3.279 0 01-.708-.78c-.192-.304-.356-.696-.492-1.176a6.382 6.382 0 01-.192-1.62c0-.592.064-1.128.192-1.608.136-.488.3-.88.492-1.176.192-.304.428-.568.708-.792a3.77 3.77 0 01.792-.492c.24-.112.508-.196.804-.252.296-.064.516-.1.66-.108zm1.716 1.56c-.344-.208-.76-.312-1.248-.312s-.904.104-1.248.312c-.344.2-.6.468-.768.804a4.239 4.239 0 00-.36 1.008 5.635 5.635 0 00-.096 1.056c0 .368.032.72.096 1.056.072.336.192.672.36 1.008.168.336.424.608.768.816.344.2.76.3 1.248.3s.904-.1 1.248-.3c.344-.208.6-.48.768-.816.168-.336.284-.672.348-1.008.072-.336.108-.688.108-1.056 0-.368-.036-.72-.108-1.056a3.872 3.872 0 00-.348-1.008 1.904 1.904 0 00-.768-.804zm5.969 4.812l3.996-6.144h1.5V20h-1.536v-6.144L103.6 20h-1.5v-8.4h1.536v6.144zm-.54-8.34h1.236a.994.994 0 00.396.72c.24.168.536.252.888.252s.644-.084.876-.252a.981.981 0 00.408-.72h1.236a2.172 2.172 0 01-.804 1.332c-.424.336-.996.504-1.716.504s-1.296-.168-1.728-.504a2.193 2.193 0 01-.792-1.332zm17.643 9.324h1.152l-.072 3.168h-1.344V20h-6.108v1.896h-1.344l-.072-3.168h.72c.968-1.24 1.452-3.012 1.452-5.316V11.6h5.616v7.128zm-1.536-5.856h-2.544v1.008c0 1.008-.08 1.884-.24 2.628-.16.736-.468 1.476-.924 2.22h3.708v-5.856zM122.587 20v-1.272c.256.048.484.04.684-.024.2-.064.364-.156.492-.276.128-.128.24-.308.336-.54a3.51 3.51 0 00.204-.648c.048-.208.084-.468.108-.78.032-.32.048-.58.048-.78.008-.208.012-.468.012-.78v-3.3h5.748V20h-1.536v-7.128h-2.676v2.484c0 .52-.016.976-.048 1.368a6.637 6.637 0 01-.24 1.32c-.128.488-.308.88-.54 1.176-.232.296-.572.528-1.02.696-.44.16-.964.188-1.572.084zm14.741-3.132h-1.464L133.848 20h-1.944l2.376-3.3a3.399 3.399 0 01-.696-.168 3.589 3.589 0 01-.708-.372 1.858 1.858 0 01-.6-.756c-.152-.336-.228-.728-.228-1.176 0-.48.08-.892.24-1.236.168-.344.364-.604.588-.78a2.42 2.42 0 01.84-.408c.344-.096.632-.152.864-.168.232-.024.504-.036.816-.036h3.468V20h-1.536v-3.132zm0-3.996h-2.004c-1.128 0-1.692.464-1.692 1.392 0 .888.6 1.332 1.8 1.332h1.896v-2.724zm12.169 4.26h1.524a5.416 5.416 0 01-.156.828 3.5 3.5 0 01-.372.828c-.168.288-.38.536-.636.744-.256.208-.596.38-1.02.516a4.75 4.75 0 01-1.452.204c-.152 0-.3-.004-.444-.012a4.705 4.705 0 01-.66-.108 4.657 4.657 0 01-.816-.228 4.314 4.314 0 01-.804-.48 3.279 3.279 0 01-.732-.756c-.2-.296-.368-.676-.504-1.14-.136-.472-.204-1-.204-1.584 0-.832.112-1.552.336-2.16.224-.616.532-1.096.924-1.44a3.96 3.96 0 011.296-.756c.464-.16.972-.24 1.524-.24s1.04.068 1.464.204c.432.128.776.292 1.032.492s.468.44.636.72c.168.272.284.532.348.78s.104.504.12.768h-1.524a1.902 1.902 0 00-.156-.564 2.092 2.092 0 00-.324-.528c-.144-.184-.356-.328-.636-.432a2.511 2.511 0 00-.96-.168c-.448 0-.836.088-1.164.264a1.853 1.853 0 00-.768.72 3.62 3.62 0 00-.384 1.032 5.9 5.9 0 00-.12 1.248c0 .968.236 1.728.708 2.28.48.544 1.108.816 1.884.816.648 0 1.14-.18 1.476-.54a2.05 2.05 0 00.564-1.308zm4.541-2.076h4.272v1.272h-4.272v2.4h4.896V20h-6.432v-8.4h6.3v1.272h-4.764v2.184zm7.652-2.184v2.064h2.448c1.88 0 2.82.86 2.82 2.58 0 .336-.048.64-.144.912-.088.272-.2.492-.336.66a1.891 1.891 0 01-.492.444c-.192.12-.372.212-.54.276-.16.056-.344.1-.552.132-.2.032-.352.052-.456.06h-4.284v-8.4h6.252v1.272h-4.716zm0 3.336v2.52h2.04c.488 0 .884-.088 1.188-.264.304-.184.456-.524.456-1.02 0-.216-.04-.404-.12-.564a.917.917 0 00-.264-.36.973.973 0 00-.384-.204c-.16-.048-.3-.076-.42-.084a3.22 3.22 0 00-.42-.024h-2.076zm11.837.66h-1.464L170.047 20h-1.944l2.376-3.3a3.399 3.399 0 01-.696-.168 3.589 3.589 0 01-.708-.372 1.858 1.858 0 01-.6-.756c-.152-.336-.228-.728-.228-1.176 0-.48.08-.892.24-1.236.168-.344.364-.604.588-.78a2.42 2.42 0 01.84-.408c.344-.096.632-.152.864-.168.232-.024.504-.036.816-.036h3.468V20h-1.536v-3.132zm0-3.996h-2.004c-1.128 0-1.692.464-1.692 1.392 0 .888.6 1.332 1.8 1.332h1.896v-2.724zM60.311 25.6h3.348c.32 0 .604.012.852.036.256.024.54.088.852.192.32.104.584.248.792.432.216.176.396.432.54.768.152.328.228.72.228 1.176 0 .824-.26 1.48-.78 1.968s-1.352.732-2.496.732h-1.8V34H60.31v-8.4zm1.536 1.272v2.76h1.788c.224 0 .416-.012.576-.036.16-.032.336-.088.528-.168a.88.88 0 00.444-.408c.104-.2.156-.448.156-.744 0-.256-.044-.476-.132-.66a1.027 1.027 0 00-.288-.408 1.097 1.097 0 00-.432-.216 1.781 1.781 0 00-.432-.096 3.112 3.112 0 00-.408-.024h-1.8zm9.647-1.5a4.469 4.469 0 01.924 0c.152.008.376.044.672.108a3.381 3.381 0 011.584.744c.288.224.528.488.72.792.192.296.352.688.48 1.176.136.48.204 1.016.204 1.608 0 .592-.068 1.132-.204 1.62-.128.48-.288.872-.48 1.176a3.168 3.168 0 01-.72.78c-.28.224-.54.392-.78.504-.24.104-.508.184-.804.24-.296.064-.52.1-.672.108a4.469 4.469 0 01-.924 0 4.705 4.705 0 01-.66-.108 3.791 3.791 0 01-.804-.24 4.26 4.26 0 01-.792-.504 3.279 3.279 0 01-.708-.78c-.192-.304-.356-.696-.492-1.176a6.382 6.382 0 01-.192-1.62c0-.592.064-1.128.192-1.608.136-.488.3-.88.492-1.176.192-.304.428-.568.708-.792a3.77 3.77 0 01.792-.492c.24-.112.508-.196.804-.252.296-.064.516-.1.66-.108zm1.716 1.56c-.344-.208-.76-.312-1.248-.312s-.904.104-1.248.312c-.344.2-.6.468-.768.804a4.239 4.239 0 00-.36 1.008 5.635 5.635 0 00-.096 1.056c0 .368.032.72.096 1.056.072.336.192.672.36 1.008.168.336.424.608.768.816.344.2.76.3 1.248.3s.904-.1 1.248-.3c.344-.208.6-.48.768-.816.168-.336.284-.672.348-1.008.072-.336.108-.688.108-1.056 0-.368-.036-.72-.108-1.056a3.872 3.872 0 00-.348-1.008 1.904 1.904 0 00-.768-.804zm10.978 5.796h1.152l-.072 3.168h-1.344V34h-6.108v1.896h-1.344l-.072-3.168h.72c.968-1.24 1.452-3.012 1.452-5.316V25.6h5.616v7.128zm-1.536-5.856h-2.544v1.008c0 1.008-.08 1.884-.24 2.628-.16.736-.468 1.476-.924 2.22h3.708v-5.856zm5.398 3.36V34h-1.536v-8.4h1.536v3.36h3.744V25.6h1.536V34h-1.536v-3.768H88.05zm10.443-.096l1.776-4.536h1.608l-2.82 6.768c-.168.408-.352.74-.552.996-.2.256-.416.436-.648.54a2.675 2.675 0 01-.576.18 4.004 4.004 0 01-.6.036c-.448 0-.812-.044-1.092-.132v-1.332c.312.096.604.144.876.144.648 0 1.048-.336 1.2-1.008L94.461 25.6h1.884l2.148 4.536zm5.893-1.176h1.08a5.23 5.23 0 01.18-.936c.088-.312.232-.632.432-.96.208-.336.456-.624.744-.864.288-.248.664-.452 1.128-.612.472-.16 1-.24 1.584-.24.16 0 .312.008.456.024.152.008.376.044.672.108a3.381 3.381 0 011.584.744c.288.224.528.488.72.792.192.296.352.688.48 1.176.136.48.204 1.016.204 1.608 0 .592-.068 1.132-.204 1.62-.128.48-.288.872-.48 1.176a3.168 3.168 0 01-.72.78c-.28.224-.54.392-.78.504-.24.104-.508.184-.804.24-.296.064-.52.1-.672.108a4.133 4.133 0 01-.456.024 4.923 4.923 0 01-1.632-.252c-.48-.176-.868-.396-1.164-.66a3.613 3.613 0 01-.732-.948c-.2-.368-.34-.724-.42-1.068a6.905 6.905 0 01-.156-1.092h-1.044V34h-1.536v-8.4h1.536v3.36zm3.9 3.72c.344.2.76.3 1.248.3s.904-.1 1.248-.3c.344-.208.6-.48.768-.816.168-.336.284-.672.348-1.008.072-.336.108-.688.108-1.056 0-.368-.036-.72-.108-1.056a3.872 3.872 0 00-.348-1.008 1.904 1.904 0 00-.768-.804c-.344-.208-.76-.312-1.248-.312s-.904.104-1.248.312c-.344.2-.6.468-.768.804a4.239 4.239 0 00-.36 1.008 5.635 5.635 0 00-.096 1.056c0 .368.032.72.096 1.056.072.336.192.672.36 1.008.168.336.424.608.768.816zm15.524-1.548h1.524a5.416 5.416 0 01-.156.828 3.5 3.5 0 01-.372.828c-.168.288-.38.536-.636.744-.256.208-.596.38-1.02.516a4.75 4.75 0 01-1.452.204c-.152 0-.3-.004-.444-.012a4.705 4.705 0 01-.66-.108 4.657 4.657 0 01-.816-.228 4.314 4.314 0 01-.804-.48 3.279 3.279 0 01-.732-.756c-.2-.296-.368-.676-.504-1.14-.136-.472-.204-1-.204-1.584 0-.832.112-1.552.336-2.16.224-.616.532-1.096.924-1.44a3.96 3.96 0 011.296-.756c.464-.16.972-.24 1.524-.24s1.04.068 1.464.204c.432.128.776.292 1.032.492s.468.44.636.72c.168.272.284.532.348.78s.104.504.12.768h-1.524a1.902 1.902 0 00-.156-.564 2.092 2.092 0 00-.324-.528c-.144-.184-.356-.328-.636-.432a2.511 2.511 0 00-.96-.168c-.448 0-.836.088-1.164.264a1.853 1.853 0 00-.768.72 3.62 3.62 0 00-.384 1.032 5.9 5.9 0 00-.12 1.248c0 .968.236 1.728.708 2.28.48.544 1.108.816 1.884.816.648 0 1.14-.18 1.476-.54a2.05 2.05 0 00.564-1.308zM130.823 34l-2.472-6.648h-.024l.024.324V34h-1.536v-8.4h2.292l2.292 6.372 2.292-6.372h2.292V34h-1.536v-6.324l.024-.324h-.024L131.975 34h-1.152zm10.363-8.628a4.469 4.469 0 01.924 0c.152.008.376.044.672.108a3.381 3.381 0 011.584.744c.288.224.528.488.72.792.192.296.352.688.48 1.176.136.48.204 1.016.204 1.608 0 .592-.068 1.132-.204 1.62-.128.48-.288.872-.48 1.176a3.168 3.168 0 01-.72.78c-.28.224-.54.392-.78.504-.24.104-.508.184-.804.24-.296.064-.52.1-.672.108a4.469 4.469 0 01-.924 0 4.705 4.705 0 01-.66-.108 3.791 3.791 0 01-.804-.24 4.26 4.26 0 01-.792-.504 3.279 3.279 0 01-.708-.78c-.192-.304-.356-.696-.492-1.176a6.382 6.382 0 01-.192-1.62c0-.592.064-1.128.192-1.608.136-.488.3-.88.492-1.176.192-.304.428-.568.708-.792a3.77 3.77 0 01.792-.492c.24-.112.508-.196.804-.252.296-.064.516-.1.66-.108zm1.716 1.56c-.344-.208-.76-.312-1.248-.312s-.904.104-1.248.312c-.344.2-.6.468-.768.804a4.239 4.239 0 00-.36 1.008 5.635 5.635 0 00-.096 1.056c0 .368.032.72.096 1.056.072.336.192.672.36 1.008.168.336.424.608.768.816.344.2.76.3 1.248.3s.904-.1 1.248-.3c.344-.208.6-.48.768-.816.168-.336.284-.672.348-1.008.072-.336.108-.688.108-1.056 0-.368-.036-.72-.108-1.056a3.872 3.872 0 00-.348-1.008 1.904 1.904 0 00-.768-.804zM146.247 34v-1.272c.256.048.484.04.684-.024.2-.064.364-.156.492-.276.128-.128.24-.308.336-.54a3.51 3.51 0 00.204-.648c.048-.208.084-.468.108-.78.032-.32.048-.58.048-.78.008-.208.012-.468.012-.78v-3.3h5.748V34h-1.536v-7.128h-2.676v2.484c0 .52-.016.976-.048 1.368a6.637 6.637 0 01-.24 1.32c-.128.488-.308.88-.54 1.176-.232.296-.572.528-1.02.696-.44.16-.964.188-1.572.084zm11.213-4.944h4.272v1.272h-4.272v2.4h4.896V34h-6.432v-8.4h6.3v1.272h-4.764v2.184zm7.652 1.176V34h-1.536v-8.4h1.536v3.36h3.744V25.6h1.536V34h-1.536v-3.768h-3.744zm8.86-4.632v7.128h2.82V25.6h1.536v7.128h2.82V25.6h1.536v7.128h1.152l-.072 3.168h-1.344V34h-9.984v-8.4h1.536zm12.574 6.144l3.996-6.144h1.5V34h-1.536v-6.144L186.51 34h-1.5v-8.4h1.536v6.144zm9.07-1.512V34h-1.536v-8.4h1.536v3.36h3.744V25.6h1.536V34h-1.536v-3.768h-3.744zm10.444-.096l1.776-4.536h1.608l-2.82 6.768c-.168.408-.352.74-.552.996-.2.256-.416.436-.648.54a2.675 2.675 0 01-.576.18 4.004 4.004 0 01-.6.036c-.448 0-.812-.044-1.092-.132v-1.332c.312.096.604.144.876.144.648 0 1.048-.336 1.2-1.008l-3.204-6.192h1.884l2.148 4.536z" fill="#1A1A1A"/><defs><clipPath id="clip0_205_3285"><path fill="#fff" transform="rotate(-45 27.763 11.5)" d="M0 0h31.318v31.318H0z"/></clipPath></defs></svg>