<svg width="60" height="68" fill="none" xmlns="http://www.w3.org/2000/svg"><path d="M30.51 56.523a.5.5 0 01-.5.477c-.29 0-.51-.21-.52-.477-.145-3.168-1.756-5.217-4.832-6.147C14.53 47.968 7 38.863 7 28 7 15.297 17.297 5 30 5s23 10.297 23 23c0 10.863-7.53 19.968-17.658 22.376-3.076.93-4.687 2.98-4.83 6.147h-.002z" fill="#F33"/><path d="M30 68c-2.21 0-4-1.79-4-4s1.79-4 4-4 4 1.79 4 4-1.79 4-4 4z" fill="#fff"/><path fill-rule="evenodd" clip-rule="evenodd" d="M30 66a2 2 0 10.09-3.998 2 2 0 00-.09 3.997z" fill="#F33"/><path fill-rule="evenodd" clip-rule="evenodd" d="M28 34.2V39h11.4a.6.6 0 00.6-.6V24.6a.6.6 0 00-.6-.6h-4.954l-.158 2H38v1h-3.79l-.159 2H38v1h-4.028l-.373 4.715a.303.303 0 01-.323.284.306.306 0 01-.276-.309V18.4a.4.4 0 00-.4-.4H32v-.6a.4.4 0 00-.4-.4H21.4a.4.4 0 00-.4.4v.6h-.6a.4.4 0 00-.4.4v20a.6.6 0 00.6.6H25v-4.8c0-.11.09-.2.2-.2h2.6c.11 0 .2.09.2.2zM23.5 31v-6h2v6h-2zm4-6v6h2v-6h-2zm-4-2v-3h2v3h-2zm4-3v3h2v-3h-2zM35 33v-1h3v1h-3z" fill="#fff"/><path d="M34.526 23l.079-1H37.6c.22 0 .4.18.4.4v.6h-3.474z" fill="#fff"/></svg>